Nicolas Cage (National Treasure: Book of Secrets, Leaving Las Vegas) stars in Knowing, a gripping action-thriller of global proportions about a professor who stumbles on terrifying predictions about the future and sets out to prevent them from coming true.

Rose Byrne ("Damages", Troy), Chandler Canterbury ( The Curious Case of Benjamin Button) and Lara Robinson ("Saved") also star in director Alex Proyas' ( I, Robot ) riveting feature.

Complete name : C:UsersstigDocumentsKNOWING-2009 IN H.264 BY STIGknowing 2009.mp4
Format : MPEG-4
Format profile : Base Media / Version 2
Codec ID : mp42
File size : 900 MiB
Duration : 1h 56mn
Overall bit rate : 1 080 Kbps
Encoded date : UTC 2009-08-05 16:22:17
Tagged date : UTC 2009-08-05 20:49:52
Writing application : HandBrake 0.9.3 2008112300

Video
ID : 1
Format : AVC
Format/Info : Advanced Video Codec
Format profile : Main@L4.0
Format settings, CABAC : Yes
Format settings, ReFrames : 3 frames
Codec ID : avc1
Codec ID/Info : Advanced Video Coding
Duration : 1h 56mn
Bit rate mode : Variable
Bit rate : 916 Kbps
Width : 718 pixels
Height : 434 pixels
Display aspect ratio : 2.35
Frame rate mode : Variable
Frame rate : 25.000 fps
Minimum frame rate : 12.500 fps
Maximum frame rate : 25.614 fps
Resolution : 24 bits
Colorimetry : 4:2:0
Scan type : Progressive
Bits/(Pixel*Frame) : 0.118
Stream size : 763 MiB (85%)
Writing library : x264 core 65

Audio
ID : 2
Format : AAC
Format/Info : Advanced Audio Codec
Format version : Version 4
Format profile : LC
Format settings, SBR : No
Codec ID : 40
Duration : 1h 56mn
Bit rate mode : Variable
Bit rate : 160 Kbps
Maximum bit rate : 210 Kbps
Channel(s) : 2 channels
Channel positions : L R
Sampling rate : 48.0 KHz
Resolution : 16 bits
Stream size : 133 MiB (15%)
Language : English
Encoded date : UTC 2009-08-05 16:22:17
Tagged date : UTC 2009-08-05 20:49:50